<svg width="184" height="74" viewBox="0 0 184 74" fill="none" xmlns="http://www.w3.org/2000/svg">
<path fill-rule="evenodd" clip-rule="evenodd" d="M15 0C6.71573 0 0 6.71573 0 15V40C0 44.6514 2.11715 48.8083 5.44036 51.5596C8.1917 54.8829 12.3486 57 17 57H27C35.2843 57 42 50.2843 42 42V17C42 12.3486 39.8829 8.1917 36.5596 5.44036C33.8083 2.11715 29.6514 0 25 0H15ZM36.5596 5.44036C33.9641 3.29148 30.6329 2 27 2H17C8.71573 2 2 8.71573 2 17V42C2 45.6329 3.29148 48.9641 5.44036 51.5596C8.03589 53.7085 11.3671 55 15 55H25C33.2843 55 40 48.2843 40 40V15C40 11.3671 38.7085 8.03589 36.5596 5.44036Z" fill="#EFEFEF"/>
<path d="M46.8213 37.75C46.8213 37.1167 46.8046 36.3 46.7713 35.3C46.738 34.3 46.688 33.4 46.6213 32.6H49.8713C49.938 33.2333 49.988 33.9333 50.0213 34.7C50.0546 35.4667 50.0713 36.1 50.0713 36.6H50.1713C50.838 35.2333 51.838 34.1333 53.1713 33.3C54.5046 32.4333 56.0046 32 57.6713 32C58.1046 32 58.488 32.0167 58.8213 32.05C59.188 32.0833 59.5546 32.15 59.9213 32.25L59.4713 35.45C59.2713 35.3833 58.938 35.3167 58.4713 35.25C58.0046 35.1833 57.538 35.15 57.0713 35.15C56.1713 35.15 55.3046 35.3167 54.4713 35.65C53.638 35.9833 52.9046 36.5167 52.2713 37.25C51.6713 37.95 51.1713 38.8667 50.7713 40C50.4046 41.1 50.2213 42.4333 50.2213 44V56H46.8213V37.75ZM79.0029 40.9C79.0029 38.8667 78.4696 37.35 77.4029 36.35C76.3363 35.35 74.7863 34.85 72.7529 34.85C71.3529 34.85 70.0529 35.1 68.8529 35.6C67.6529 36.1 66.6363 36.7667 65.8029 37.6L63.9029 35.35C64.8696 34.3833 66.1363 33.5833 67.7029 32.95C69.3029 32.3167 71.1029 32 73.1029 32C74.3696 32 75.5529 32.1833 76.6529 32.55C77.7529 32.8833 78.7196 33.4 79.5529 34.1C80.3863 34.8 81.0363 35.6833 81.5029 36.75C81.9696 37.8167 82.2029 39.0667 82.2029 40.5V50.75C82.2029 51.65 82.2363 52.5833 82.3029 53.55C82.3696 54.5167 82.4696 55.3333 82.6029 56H79.5529C79.4529 55.4333 79.3696 54.8167 79.3029 54.15C79.2363 53.4833 79.2029 52.8333 79.2029 52.2H79.1029C78.0363 53.7667 76.8196 54.9 75.4529 55.6C74.1196 56.2667 72.5029 56.6 70.6029 56.6C69.7029 56.6 68.7696 56.4667 67.8029 56.2C66.8696 55.9667 66.0029 55.5667 65.2029 55C64.4363 54.4333 63.7863 53.7 63.2529 52.8C62.7529 51.9 62.5029 50.8 62.5029 49.5C62.5029 47.7 62.9529 46.2833 63.8529 45.25C64.7863 44.1833 66.0196 43.4 67.5529 42.9C69.0863 42.3667 70.8363 42.0333 72.8029 41.9C74.8029 41.7333 76.8696 41.65 79.0029 41.65V40.9ZM78.0029 44.3C76.6029 44.3 75.1863 44.3667 73.7529 44.5C72.3529 44.6 71.0696 44.8333 69.9029 45.2C68.7696 45.5333 67.8363 46.0333 67.1029 46.7C66.3696 47.3667 66.0029 48.25 66.0029 49.35C66.0029 50.1833 66.1529 50.8833 66.4529 51.45C66.7863 52.0167 67.2196 52.4833 67.7529 52.85C68.2863 53.1833 68.8696 53.4333 69.5029 53.6C70.1696 53.7333 70.8363 53.8 71.5029 53.8C72.7029 53.8 73.7696 53.6 74.7029 53.2C75.6363 52.7667 76.4196 52.2 77.0529 51.5C77.6863 50.7667 78.1696 49.9333 78.5029 49C78.8363 48.0667 79.0029 47.0833 79.0029 46.05V44.3H78.0029ZM73.4529 27.8H70.5029L75.5029 20.6H80.0529L73.4529 27.8ZM107.812 37.95C107.245 37.05 106.412 36.3167 105.312 35.75C104.245 35.15 103.079 34.85 101.812 34.85C100.445 34.85 99.2119 35.1 98.1119 35.6C97.0119 36.0667 96.0619 36.7333 95.2619 37.6C94.4952 38.4333 93.8952 39.4333 93.4619 40.6C93.0619 41.7333 92.8619 42.9667 92.8619 44.3C92.8619 45.6333 93.0619 46.8667 93.4619 48C93.8952 49.1333 94.4952 50.1333 95.2619 51C96.0286 51.8333 96.9619 52.5 98.0619 53C99.1619 53.4667 100.395 53.7 101.762 53.7C103.262 53.7 104.529 53.4167 105.562 52.85C106.595 52.2833 107.445 51.55 108.112 50.65L110.662 52.55C109.662 53.7833 108.429 54.7667 106.962 55.5C105.529 56.2333 103.795 56.6 101.762 56.6C99.8619 56.6 98.1452 56.3 96.6119 55.7C95.0786 55.0667 93.7619 54.2 92.6619 53.1C91.5952 52 90.7619 50.7 90.1619 49.2C89.5619 47.7 89.2619 46.0667 89.2619 44.3C89.2619 42.5333 89.5619 40.9 90.1619 39.4C90.7619 37.9 91.5952 36.6 92.6619 35.5C93.7619 34.4 95.0786 33.55 96.6119 32.95C98.1452 32.3167 99.8619 32 101.762 32C103.329 32 104.912 32.35 106.512 33.05C108.145 33.7167 109.462 34.7167 110.462 36.05L107.812 37.95ZM132.962 56C132.895 55.3667 132.845 54.6667 132.812 53.9C132.779 53.1333 132.762 52.5 132.762 52H132.662C131.995 53.3667 130.912 54.4833 129.412 55.35C127.912 56.1833 126.329 56.6 124.662 56.6C121.695 56.6 119.462 55.7167 117.962 53.95C116.495 52.1833 115.762 49.85 115.762 46.95V32.6H119.162V45.55C119.162 46.7833 119.262 47.9 119.462 48.9C119.662 49.9 119.995 50.7667 120.462 51.5C120.962 52.2 121.612 52.75 122.412 53.15C123.245 53.55 124.279 53.75 125.512 53.75C126.412 53.75 127.279 53.5667 128.112 53.2C128.979 52.8333 129.745 52.2833 130.412 51.55C131.079 50.7833 131.612 49.8333 132.012 48.7C132.412 47.5333 132.612 46.1667 132.612 44.6V32.6H136.012V50.85C136.012 51.4833 136.029 52.3 136.062 53.3C136.095 54.3 136.145 55.2 136.212 56H132.962ZM148.515 56H145.115V18.2H148.515V56ZM180.862 44.3C180.862 46.0667 180.546 47.7 179.912 49.2C179.312 50.7 178.462 52 177.362 53.1C176.262 54.2 174.946 55.0667 173.412 55.7C171.879 56.3 170.196 56.6 168.362 56.6C166.562 56.6 164.896 56.3 163.362 55.7C161.829 55.0667 160.512 54.2 159.412 53.1C158.312 52 157.446 50.7 156.812 49.2C156.212 47.7 155.912 46.0667 155.912 44.3C155.912 42.5333 156.212 40.9 156.812 39.4C157.446 37.9 158.312 36.6 159.412 35.5C160.512 34.4 161.829 33.55 163.362 32.95C164.896 32.3167 166.562 32 168.362 32C170.196 32 171.879 32.3167 173.412 32.95C174.946 33.55 176.262 34.4 177.362 35.5C178.462 36.6 179.312 37.9 179.912 39.4C180.546 40.9 180.862 42.5333 180.862 44.3ZM177.262 44.3C177.262 43 177.046 41.7833 176.612 40.65C176.212 39.4833 175.629 38.4833 174.862 37.65C174.096 36.7833 173.162 36.1 172.062 35.6C170.962 35.1 169.729 34.85 168.362 34.85C166.996 34.85 165.762 35.1 164.662 35.6C163.596 36.1 162.679 36.7833 161.912 37.65C161.146 38.4833 160.546 39.4833 160.112 40.65C159.712 41.7833 159.512 43 159.512 44.3C159.512 45.6 159.712 46.8333 160.112 48C160.546 49.1333 161.146 50.1333 161.912 51C162.679 51.8333 163.596 52.5 164.662 53C165.762 53.4667 166.996 53.7 168.362 53.7C169.729 53.7 170.962 53.4667 172.062 53C173.162 52.5 174.096 51.8333 174.862 51C175.629 50.1333 176.212 49.1333 176.612 48C177.046 46.8333 177.262 45.6 177.262 44.3Z" fill="url(#paint0_linear_81_104)"/>
<defs>
<linearGradient id="paint0_linear_81_104" x1="113" y1="6" x2="113" y2="74" gradientUnits="userSpaceOnUse">
<stop offset="0.317708" stop-color="#EFEFEF"/>
<stop offset="1" stop-color="#EFEFEF" stop-opacity="0.35"/>
</linearGradient>
</defs>
</svg>
