<svg width="49" height="43" viewBox="0 0 49 43" fill="none" xmlns="http://www.w3.org/2000/svg">
<path d="M0 17.1525C0 26.61 8.87489 34.305 19.7826 34.305C24.0961 34.305 28.0377 33.1015 31.2852 31.0809L43.482 41.6775C44.0522 42.1721 44.796 42.4085 45.5892 42.4085C47.2748 42.4085 48.44 41.3122 48.44 39.872C48.44 39.1842 48.1425 38.5609 47.6221 38.1097L35.4996 27.5344C38.0529 24.6541 39.5651 21.0645 39.5651 17.1525C39.5651 7.69499 30.6902 0 19.7826 0C8.87489 0 0 7.69499 0 17.1525ZM4.23912 17.1525C4.23912 9.71547 11.2052 3.67554 19.7826 3.67554C28.3601 3.67554 35.326 9.71547 35.326 17.1525C35.326 24.5897 28.3601 30.6295 19.7826 30.6295C11.2052 30.6295 4.23912 24.5897 4.23912 17.1525Z" fill="#EFEFEF"/>
</svg>
